<svg xmlns="http://www.w3.org/2000/svg" width="51.79" height="70.637" viewBox="0 0 51.79 70.637">
  <g id="_4288592_bulb_idea_knowledge_light_read_icon" data-name="4288592_bulb_idea_knowledge_light_read_icon" transform="translate(-10.004 -2)">
    <path id="Path_4816" data-name="Path 4816" d="M60.446,27.724A24.723,24.723,0,1,0,26.305,50.578v7.755H45.142V50.578a24.723,24.723,0,0,0,15.3-22.855Z" transform="translate(0.176 0.176)" fill="#e5e6eb"/>
    <path id="Path_4817" data-name="Path 4817" d="M44.5,4.778A24.7,24.7,0,0,1,17.533,45.312a24.73,24.73,0,0,0,7.613,4.95v7.755H43.983V50.262A24.713,24.713,0,0,0,44.5,4.778Z" transform="translate(1.335 0.492)" fill="#d9dae2"/>
    <path id="Path_4818" data-name="Path 4818" d="M25,54v3.532a4.709,4.709,0,0,0,4.709,4.709h7.064a4.709,4.709,0,0,0,4.709-4.709V54Z" transform="translate(2.658 9.218)" fill="#0468ad"/>
    <rect id="Rectangle_2262" data-name="Rectangle 2262" width="19" height="9" transform="translate(26.004 57.637)" fill="#cceaff"/>
    <path id="Path_4819" data-name="Path 4819" d="M42.2,23.034c-.253-.61-.43-1.036-.682-1.648l.64-2.5-1.806-1.806-2.49.652-1.648-.682-1.31-2.216H32.351l-1.315,2.21-1.648.682-2.5-.64L25.086,18.9l.64,2.5-.682,1.648-2.216,1.31V26.9l2.222,1.309c.253.61.43,1.036.682,1.648l-.64,2.5L26.9,34.164l2.5-.64c.61.252,1.268,1.271,1.878,1.53v20H35.98V35.042c.61-.253,1.268-1.273,1.878-1.53l2.5.64,1.806-1.806-.64-2.5L42.2,28.2l2.216-1.31V24.337Zm-8.575,6.122a3.532,3.532,0,1,1,3.532-3.532A3.532,3.532,0,0,1,33.626,29.156Z" transform="translate(2.274 2.276)" fill="#c256c3" opacity="0.75"/>
    <path id="Path_4820" data-name="Path 4820" d="M40.482,49v3.532H24v2.355H40.482v3.532h2.355V49Z" transform="translate(2.481 8.332)" fill="#85b4e0"/>
    <path id="Path_4821" data-name="Path 4821" d="M24.064,12.709l2.355-2.355H24.064V8l-2.355,2.355H19.355v2.355L17,15.064h2.355v2.355l2.355-2.355h2.355Z" transform="translate(1.24 1.064)" fill="#fff"/>
    <path id="Path_4822" data-name="Path 4822" d="M35.9,2A25.9,25.9,0,0,0,25.3,51.53V66.75a1.177,1.177,0,0,0,1.177,1.177H26.6a5.9,5.9,0,0,0,5.769,4.709h7.064A5.9,5.9,0,0,0,45.2,67.928h.118a1.177,1.177,0,0,0,1.177-1.177V51.53A25.9,25.9,0,0,0,35.9,2ZM44.14,65.573H27.658V63.218H41.786V60.864H27.658V58.509H44.14Zm-4.709,4.709H32.368a3.532,3.532,0,0,1-3.315-2.355H42.746a3.532,3.532,0,0,1-3.315,2.355Zm5.437-20.615a1.177,1.177,0,0,0-.728,1.089v5.4H27.658v-5.4a1.177,1.177,0,0,0-.728-1.089,23.546,23.546,0,1,1,17.937,0Z" transform="translate(0)" fill="#5407a5"/>
  </g>
</svg>
