<svg xmlns="http://www.w3.org/2000/svg" width="61" height="64" viewBox="0 0 61 64">
  <g id="_12157249_workflow_chat_conversation_hierarchical_structure_icon_-_Copy" data-name="12157249_workflow_chat_conversation_hierarchical_structure_icon - Copy" transform="translate(-2)">
    <path id="Path_4815" data-name="Path 4815" d="M0,0H24V16H0Z" transform="translate(20 1)" fill="#ab76ff"/>
    <path id="Path_4803" data-name="Path 4803" d="M20,30l12-8,12,8L32,38Z" fill="rgba(255,224,148,0.55)"/>
    <path id="Path_4804" data-name="Path 4804" d="M32,63A10,10,0,1,1,42,53,10.011,10.011,0,0,1,32,63Z" fill="rgba(104,221,193,0.45)"/>
    <path id="Path_4805" data-name="Path 4805" d="M44,0H20a1,1,0,0,0-1,1V17a1,1,0,0,0,1,1H44a1,1,0,0,0,1-1V1A1,1,0,0,0,44,0ZM43,16H21V2H43Z" fill="#5407a5"/>
    <path id="Path_4806" data-name="Path 4806" d="M44.555,29.168l-12-8a1,1,0,0,0-1.109,0l-12,8a1,1,0,0,0,0,1.664l12,8a1,1,0,0,0,1.109,0l12-8a1,1,0,0,0,0-1.664ZM32,36.8,21.8,30,32,23.2,42.2,30Z" fill="#c256c3"/>
    <path id="Path_4807" data-name="Path 4807" d="M32,42A11,11,0,1,0,43,53,11.012,11.012,0,0,0,32,42Zm0,20a9,9,0,1,1,9-9A9.01,9.01,0,0,1,32,62Z" fill="#5407a5"/>
    <path id="Path_4808" data-name="Path 4808" d="M27,8H37a1,1,0,0,0,0-2H27a1,1,0,0,0,0,2Z" fill="#5407a5"/>
    <path id="Path_4809" data-name="Path 4809" d="M25,12H39a1,1,0,0,0,0-2H25a1,1,0,0,0,0,2Z" fill="#5407a5"/>
    <path id="Path_4810" data-name="Path 4810" d="M27,30a1,1,0,0,0,1,1h8a1,1,0,0,0,0-2H28A1,1,0,0,0,27,30Z" fill="#fcc275"/>
    <path id="Path_4811" data-name="Path 4811" d="M35.293,50.293,31,54.586l-2.293-2.293a1,1,0,0,0-1.414,1.414l3,3a1,1,0,0,0,1.414,0l5-5a1,1,0,0,0-1.414-1.414Z" fill="#5508a6"/>
    <path id="Path_4812" data-name="Path 4812" d="M62,8H50.414l.293-.293a1,1,0,0,0-1.414-1.414l-2,2a1,1,0,0,0,0,1.414l2,2a1,1,0,1,0,1.414-1.414L50.414,10H62a1,1,0,1,0,0-2Z" fill="#c256c3"/>
    <path id="Path_4813" data-name="Path 4813" d="M13.5,10H16a1,1,0,0,0,0-2H13.5a11.5,11.5,0,0,0,0,23h.086l-.293.293a1,1,0,1,0,1.414,1.414l2-2a1,1,0,0,0,0-1.414l-2-2a1,1,0,0,0-1.414,1.414l.293.293H13.5a9.5,9.5,0,0,1,0-19Z" fill="#c256c3"/>
    <path id="Path_4814" data-name="Path 4814" d="M49.5,29H48a1,1,0,0,0,0,2h1.5a10.5,10.5,0,0,1,.963,20.951l.244-.244a1,1,0,0,0-1.414-1.414l-2,2a1,1,0,0,0,0,1.414l2,2a1,1,0,0,0,1.414-1.414l-.337-.337A12.493,12.493,0,0,0,49.5,29Z" fill="#c256c3"/>
  </g>
</svg>
